<?xml version="1.0" standalone="no"?><!DOCTYPE svg PUBLIC "-//W3C//DTD SVG 1.1//EN" "http://www.w3.org/Graphics/SVG/1.1/DTD/svg11.dtd"><svg t="1680491296592" class="icon" viewBox="0 0 1024 1024" version="1.1" xmlns="http://www.w3.org/2000/svg" p-id="4954" xmlns:xlink="http://www.w3.org/1999/xlink" width="32" height="32"><path d="M967.111111 403.911111l-136.533333-341.333333c-5.688889-17.066667-22.755556-34.133333-45.511111-34.133334H233.244444c-22.755556 0-39.822222 11.377778-45.511111 34.133334L56.888889 403.911111v460.8c0 39.822222 34.133333 73.955556 73.955555 73.955556h762.311112c39.822222 0 73.955556-34.133333 73.955555-73.955556V426.666667v-5.688889-17.066667z m-358.4-51.2v17.066667c0 51.2-39.822222 91.022222-91.022222 91.022222-34.133333 0-56.888889-5.688889-73.955556-22.755556-17.066667-17.066667-22.755556-39.822222-22.755555-62.577777v-17.066667H170.666667l96.711111-233.244444h483.555555l96.711111 233.244444h-238.933333zM147.911111 443.733333H341.333333c28.444444 68.266667 91.022222 113.777778 170.666667 113.777778 39.822222 0 79.644444-11.377778 108.088889-34.133333 28.444444-17.066667 45.511111-45.511111 62.577778-73.955556h187.733333V853.333333H147.911111V443.733333z" fill="#1296db" p-id="4955"></path></svg>